<svg viewBox="0 -4 101 100" fill="#F3A6F3" xmlns="http://www.w3.org/2000/svg" class="svgIcon" stroke="#000">
  <g>
    <path d="M38 48h23a3 3 0 0 1 3 3v15a7 7 0 0 0 7 7h24a3 3 0 0 1 3 3v15a3 3 0 0 1-3 3H5a3 3 0 0 1-3-3V66a3 3 0 0 1 3-3h23a7 7 0 0 0 7-7v-5a3 3 0 0 1 3-3Z" stroke-width="4"/>
    <g fill="#000">
      <path d="M81.494 89.14c-.656 0-1.24-.114-1.755-.339a3.006 3.006 0 0 1-1.218-.94 2.526 2.526 0 0 1-.487-1.407h1.253c.026.329.14.612.338.85.199.236.459.418.78.548.322.129.678.194 1.07.194.437 0 .825-.077 1.163-.23a1.91 1.91 0 0 0 .795-.636c.192-.271.289-.586.289-.944 0-.375-.093-.705-.279-.99a1.844 1.844 0 0 0-.815-.676c-.358-.162-.796-.243-1.313-.243H80.5v-1.094h.815a2.44 2.44 0 0 0 1.064-.219c.308-.146.549-.351.721-.616.176-.265.264-.577.264-.935 0-.345-.077-.645-.23-.9a1.564 1.564 0 0 0-.645-.596 2.092 2.092 0 0 0-.975-.214 2.57 2.57 0 0 0-.994.194c-.308.126-.56.31-.756.552a1.437 1.437 0 0 0-.318.865h-1.193c.02-.534.18-1.001.482-1.402.302-.405.696-.72 1.183-.945a3.825 3.825 0 0 1 1.616-.338c.63 0 1.17.128 1.62.383.452.252.798.585 1.04 1 .242.413.363.86.363 1.341 0 .574-.151 1.063-.453 1.467a2.292 2.292 0 0 1-1.218.84v.08c.643.106 1.145.38 1.507.82.361.438.542.98.542 1.626 0 .553-.151 1.05-.453 1.491a3.073 3.073 0 0 1-1.223 1.034c-.517.252-1.105.378-1.765.378Z"/>
      <path d="m79.74 88.801-.405.915h.003l.401-.915Zm-1.219-.94-.805.594.006.008.8-.601Zm-.487-1.407v-1h-1.05l.051 1.05 1-.05Zm1.253 0 .997-.08-.075-.92h-.922v1Zm.338.85-.768.64.004.006.764-.645Zm.78.548-.373.927.374-.927Zm3.028-.672-.816-.577.816.577Zm.01-1.934-.84.542.002.004.838-.546Zm-.815-.676-.413.911.413-.91Zm-2.128-.243h-1v1h1v-1Zm0-1.094v-1h-1v1h1Zm1.88-.219-.428-.904-.004.002.431.902Zm.72-.616-.834-.553-.004.008.838.545Zm.035-1.835.858-.513-.858.513Zm-.646-.596-.46.888.004.002.456-.89Zm-1.97-.02.38.925.004-.002-.383-.923Zm-.755.552.774.633.004-.005-.778-.628Zm-.318.865v1h.952l.047-.951-.999-.05Zm-1.193 0-1-.038-.038 1.038h1.038v-1Zm.482-1.402.8.6.002-.002-.802-.598Zm1.183-.945-.417-.909-.002.001.42.908Zm3.237.045-.493.87.005.003.488-.873Zm1.039 1-.864.503.864-.504Zm-.09 2.808-.801-.598-.003.004.804.594Zm-1.218.84-.29-.957-.71.216v.741h1Zm0 .08h-1v.848l.838.138.162-.986Zm1.507.82-.774.634.003.003.77-.637Zm.09 3.117-.826-.564h-.001l.826.564Zm-1.224 1.034.438.9-.438-.9Zm-1.765-.622c-.54 0-.986-.092-1.353-.254l-.803 1.832c.66.29 1.385.422 2.156.422v-2Zm-1.35-.253a2.01 2.01 0 0 1-.824-.626l-1.598 1.203c.416.552.965.966 1.613 1.253l.808-1.83Zm-.818-.618a1.529 1.529 0 0 1-.293-.863l-1.998.1c.036.716.259 1.377.682 1.95l1.609-1.187Zm-1.292.186h1.253v-2h-1.253v2Zm.256-.919a2.48 2.48 0 0 0 .567 1.41l1.536-1.28a.483.483 0 0 1-.11-.291l-1.993.161Zm.571 1.415c.317.375.718.647 1.171.83l.747-1.856a.958.958 0 0 1-.39-.265L78.86 87.95Zm1.171.83c.455.182.94.266 1.442.266v-2c-.28 0-.507-.046-.695-.122l-.746 1.855Zm1.442.266c.554 0 1.087-.097 1.575-.318l-.822-1.823c-.188.085-.432.14-.753.14v2Zm1.575-.318a2.908 2.908 0 0 0 1.2-.97l-1.632-1.155a.915.915 0 0 1-.39.302l.822 1.823Zm1.2-.97c.322-.454.473-.974.473-1.522h-2a.597.597 0 0 1-.105.367l1.633 1.155Zm.473-1.522a2.77 2.77 0 0 0-.44-1.535l-1.677 1.091c.07.107.117.243.117.444h2Zm-.438-1.53a2.84 2.84 0 0 0-1.243-1.046l-.826 1.821c.209.095.32.203.387.307l1.682-1.083Zm-1.243-1.046c-.522-.237-1.109-.333-1.726-.333v2c.418 0 .706.066.9.154l.826-1.821Zm-1.726-.333H80.5v2h.815v-2Zm.185 1v-1.094h-2v1.094h2Zm-1-.094h.815v-2H80.5v2Zm.815 0c.525 0 1.032-.095 1.496-.317l-.863-1.804a1.45 1.45 0 0 1-.633.121v2Zm1.492-.315c.462-.219.85-.543 1.132-.975l-1.677-1.09a.711.711 0 0 1-.31.257l.855 1.808Zm1.127-.968c.297-.449.43-.958.43-1.487h-2a.66.66 0 0 1-.098.382l1.668 1.105Zm.43-1.487c0-.496-.112-.98-.37-1.413l-1.718 1.026a.73.73 0 0 1 .088.387h2Zm-.37-1.413a2.563 2.563 0 0 0-1.05-.974l-.911 1.78c.12.063.192.135.243.22l1.717-1.026Zm-1.045-.971a3.087 3.087 0 0 0-1.435-.326v2c.248 0 .408.046.515.102l.92-1.776Zm-1.435-.326c-.477 0-.94.088-1.377.27l.766 1.847c.185-.076.386-.117.611-.117v-2Zm-1.372.268a2.85 2.85 0 0 0-1.155.849l1.555 1.257a.855.855 0 0 1 .356-.255l-.756-1.851Zm-1.151.844c-.345.42-.518.92-.544 1.45l1.998.098a.443.443 0 0 1 .093-.28l-1.547-1.268Zm.455.499h-1.193v2h1.193v-2Zm-.194 1.037c.013-.344.111-.611.282-.838l-1.598-1.202a3.423 3.423 0 0 0-.683 1.965l2 .075Zm.285-.841c.195-.263.455-.475.801-.635l-.84-1.816a4.036 4.036 0 0 0-1.565 1.255l1.604 1.195Zm.799-.634c.348-.16.743-.247 1.198-.247v-2c-.718 0-1.4.139-2.033.43l.835 1.817Zm1.198-.247c.494 0 .857.1 1.128.253l.985-1.74c-.63-.357-1.348-.513-2.113-.513v2Zm1.133.256c.307.171.518.382.663.63l1.727-1.008a3.694 3.694 0 0 0-1.414-1.368l-.976 1.746Zm.663.63c.153.261.227.535.227.838h2c0-.657-.168-1.279-.5-1.846l-1.727 1.008Zm.227.838c0 .39-.099.66-.254.87l1.603 1.195c.448-.6.65-1.306.65-2.065h-2Zm-.257.873c-.162.22-.381.38-.704.477l.58 1.914a3.291 3.291 0 0 0 1.733-1.203l-1.61-1.188Zm-1.414 1.434v.08h2v-.08h-2Zm.838 1.066c.44.073.71.242.895.468l1.547-1.268c-.537-.655-1.27-1.033-2.117-1.173l-.325 1.973Zm.898.47c.193.234.313.542.313.99h2c0-.845-.242-1.621-.771-2.263l-1.542 1.274Zm.313.99c0 .36-.095.658-.278.927l1.65 1.129a3.58 3.58 0 0 0 .628-2.056h-2Zm-.279.928c-.192.281-.46.516-.835.698l.876 1.798a4.073 4.073 0 0 0 1.611-1.37l-1.652-1.126Zm-.835.698c-.362.177-.797.277-1.327.277v2c.79 0 1.531-.151 2.203-.479l-.876-1.798Z"/>
    </g>
    <g fill="#000">
      <path d="M14.054 80v-.895l3.36-3.679c.395-.43.72-.805.975-1.123.255-.322.444-.623.567-.905.126-.285.189-.584.189-.895 0-.358-.086-.668-.259-.93a1.677 1.677 0 0 0-.696-.606 2.256 2.256 0 0 0-.994-.214c-.391 0-.733.081-1.024.243-.289.16-.512.383-.671.672a2.102 2.102 0 0 0-.234 1.014h-1.173c0-.597.137-1.12.412-1.571.275-.451.65-.802 1.124-1.054a3.386 3.386 0 0 1 1.606-.378c.596 0 1.125.126 1.586.378.46.252.822.591 1.084 1.019.261.428.392.903.392 1.427 0 .374-.068.74-.203 1.099-.133.354-.365.75-.697 1.188-.328.434-.783.964-1.367 1.59l-2.287 2.447v.08h4.733V80h-6.423Z"/>
      <path d="M14.054 80h-1v1h1v-1Zm0-.895-.738-.674-.262.286v.388h1Zm3.36-3.679-.737-.675.738.675Zm.975-1.123.78.625.003-.004-.783-.621Zm.567-.905-.915-.404-.002.005.917.399Zm-.07-1.825-.84.543.005.007.835-.55Zm-.696-.606.435-.9-.435.9Zm-2.018.03.483.875.003-.002-.486-.874Zm-.671.67-.876-.483-.004.008.88.476Zm-.234 1.015v1h1v-1h-1Zm-1.173 0h-1v1h1v-1Zm.412-1.571.854.52-.854-.52Zm1.124-1.054-.467-.885-.002.002.469.883Zm3.192 0 .48-.878-.48.878Zm1.084 1.019-.853.522.852-.522Zm.189 2.526-.935-.355-.002.004.936.35Zm-.697 1.188-.797-.604.797.604Zm-1.367 1.59.73.684.002-.002-.732-.681Zm-2.287 2.447-.73-.683-.27.288v.395h1Zm0 .08h-1v1h1v-1Zm4.733 0h1v-1h-1v1Zm0 1.093v1h1v-1h-1Zm-5.423 0v-.895h-2V80h2Zm-.262-.22 3.361-3.68-1.476-1.348-3.361 3.679 1.476 1.349Zm3.36-3.679c.404-.44.744-.832 1.017-1.173l-1.56-1.251a22.33 22.33 0 0 1-.932 1.074l1.475 1.35Zm1.02-1.177c.293-.368.534-.744.7-1.127l-1.833-.798c-.079.18-.215.407-.433.682l1.566 1.243Zm.699-1.122c.182-.412.274-.848.274-1.3h-2c0 .173-.034.334-.104.492l1.83.808Zm.274-1.3a2.65 2.65 0 0 0-.423-1.479l-1.67 1.1a.66.66 0 0 1 .093.38h2Zm-.418-1.471a2.676 2.676 0 0 0-1.102-.965l-.87 1.801a.679.679 0 0 1 .291.248l1.68-1.084Zm-1.102-.965a3.255 3.255 0 0 0-1.429-.313v2c.236 0 .416.045.56.114l.87-1.8Zm-1.429-.313c-.532 0-1.047.111-1.51.37l.972 1.747c.12-.066.288-.117.538-.117v-2Zm-1.507.368c-.454.25-.814.61-1.064 1.064l1.751.966a.678.678 0 0 1 .279-.279l-.966-1.751Zm-1.068 1.071a3.098 3.098 0 0 0-.354 1.49h2c0-.252.05-.421.114-.54l-1.76-.95Zm.646.49h-1.173v2h1.173v-2Zm-.173 1c0-.437.099-.776.266-1.05l-1.707-1.042c-.383.627-.56 1.336-.56 2.092h2Zm.266-1.05c.18-.296.42-.523.74-.692l-.94-1.766c-.629.334-1.137.81-1.507 1.416l1.707 1.042Zm.737-.69a2.39 2.39 0 0 1 1.139-.263v-2c-.74 0-1.438.158-2.073.493l.934 1.77Zm1.139-.263c.452 0 .811.094 1.106.255l.96-1.755c-.627-.342-1.325-.5-2.066-.5v2Zm1.106.255c.315.172.545.393.71.664l1.706-1.044a3.841 3.841 0 0 0-1.456-1.375l-.96 1.755Zm.71.664c.162.263.246.557.246.905h2c0-.7-.177-1.357-.54-1.95l-1.705 1.045Zm.246.905c0 .25-.045.496-.138.744l1.87.71c.177-.47.268-.956.268-1.454h-2Zm-.14.748c-.087.233-.26.543-.557.935l1.595 1.208c.366-.484.657-.966.835-1.442l-1.873-.7Zm-.557.936c-.3.396-.73.898-1.302 1.512l1.464 1.363a22.189 22.189 0 0 0 1.433-1.67l-1.595-1.205Zm-1.3 1.51-2.287 2.447 1.46 1.366 2.288-2.446-1.461-1.366Zm-2.557 3.13v.08h2v-.08h-2Zm1 1.08h4.733v-2h-4.733v2Zm3.733-1V80h2v-1.094h-2Zm1 .093h-6.423v2h6.423v-2Z"/>
    </g>
    <g fill="#000">
      <path d="M50.633 55.818V66h-1.232v-8.89h-.06l-2.486 1.651v-1.253l2.546-1.69h1.232Z"/>
      <path d="M50.633 55.818h1v-1h-1v1Zm0 10.182v1h1v-1h-1Zm-1.232 0h-1v1h1v-1Zm0-8.89h1v-1h-1v1Zm-.06 0v-1h-.302l-.251.168.553.833Zm-2.486 1.651h-1v1.865l1.553-1.032-.553-.833Zm0-1.253-.553-.833-.447.297v.536h1Zm2.546-1.69v-1h-.302l-.252.167.554.833Zm.232 0V66h2V55.818h-2Zm1 9.182h-1.232v2h1.232v-2Zm-.232 1v-8.89h-2V66h2Zm-1-9.89h-.06v2h.06v-2Zm-.613.168-2.486 1.65 1.106 1.666 2.486-1.65-1.106-1.666Zm-.933 2.483v-1.253h-2v1.253h2Zm-.447-.42 2.546-1.69-1.107-1.666-2.545 1.69 1.106 1.667Zm1.993-1.523h1.232v-2h-1.232v2Z"/>
    </g>
    <path d="m50 2.472 3.262 10.039a4 4 0 0 0 3.804 2.764H67.62l-8.54 6.204a4 4 0 0 0-1.452 4.472l3.261 10.038-8.539-6.204a4 4 0 0 0-4.702 0l-8.54 6.204 3.262-10.038a4 4 0 0 0-1.453-4.472l-8.539-6.204h10.555a4 4 0 0 0 3.804-2.764L50 2.472Z" stroke-width="4"/>
  </g>
</svg>
